<?xml version="1.0" encoding="UTF-8"?>
<svg width="268px" height="204px" viewBox="0 0 268 204" version="1.1" xmlns="http://www.w3.org/2000/svg" xmlns:xlink="http://www.w3.org/1999/xlink">
    <!-- Generator: Sketch 52.6 (67491) - http://www.bohemiancoding.com/sketch -->
    <title>TIE-Ipad</title>
    <desc>Created with Sketch.</desc>
    <g id="Maquettes" stroke="none" stroke-width="1" fill="none" fill-rule="evenodd">
        <g id="Maquette-DPS-V2.3" transform="translate(-586.000000, -5396.000000)">
            <rect fill="#FEFDFC" x="0" y="0" width="1440" height="6786"></rect>
            <g id="Les-projets-en-cours" transform="translate(107.000000, 4470.000000)">
                <g id="TIE" transform="translate(453.000000, 161.000000)"></g>
            </g>
            <g id="Competences" transform="translate(121.000000, 5251.000000)">
                <g id="coding" transform="translate(506.000000, 164.000000)">
                    <path d="M0,122.393274 L0,4.08951272 C0,2.04475636 1.75264831,0.292108052 3.79740467,0.292108052 L183.151748,0.292108052 C185.196505,0.292108052 186.949153,2.04475636 186.949153,4.08951272 L186.949153,122.393274 L0,122.393274 Z" id="Path" fill="#415E72"></path>
                    <g id="Group" transform="translate(0.000000, 122.320247)" fill="#CFDCE5">
                        <path d="M186.949153,0.0730270129 L186.949153,15.2626457 C186.949153,17.3074021 185.196505,19.0600504 183.151748,19.0600504 L3.79740467,19.0600504 C1.75264831,19.0600504 0,17.3074021 0,15.2626457 L0,0.0730270129 L186.949153,0.0730270129 Z" id="Path"></path>
                        <rect id="Rectangle" x="53.4557734" y="45.9339911" width="80.0376061" height="3.79740467"></rect>
                    </g>
                    <polygon id="Path" fill="#AEC4CE" points="120.056409 168.254238 66.8927438 168.254238 70.6901485 141.380297 116.259005 141.380297"></polygon>
                    <rect id="Rectangle" fill="#FFFFFF" x="7.59480934" y="7.88691739" width="171.759534" height="106.911547"></rect>
                    <polygon id="Path" fill="#94A7AF" points="116.259005 141.380297 70.6901485 141.380297 68.569444 156.380045 116.942537 146.208843"></polygon>
                    <rect id="Rectangle" fill="#25B6D2" x="122.191719" y="41.0645499" width="10.8284455" height="2.92108052"></rect>
                    <rect id="Rectangle" fill="#AAC1CE" x="95.1191448" y="41.0645499" width="10.8284455" height="2.92108052"></rect>
                    <g id="Group" transform="translate(52.214314, 40.895127)" fill="#E04F5F">
                        <rect id="Rectangle" x="0.306713454" y="0.16942267" width="20.3599312" height="2.92108052"></rect>
                        <rect id="Rectangle" x="77.6569255" y="36.6303497" width="10.8313666" height="2.92108052"></rect>
                    </g>
                    <rect id="Rectangle" fill="#25B6D2" x="102.792823" y="77.5254769" width="10.8284455" height="2.92108052"></rect>
                    <rect id="Rectangle" fill="#E04F5F" x="54.0604371" y="77.5254769" width="32.4882575" height="2.92108052"></rect>
                    <rect id="Rectangle" fill="#415E72" x="113.62419" y="53.2162448" width="27.0754953" height="2.92108052"></rect>
                    <rect id="Rectangle" fill="#E04F5F" x="91.9614568" y="53.2162448" width="10.8342876" height="2.92108052"></rect>
                    <rect id="Rectangle" fill="#AAC1CE" x="57.0574657" y="53.2162448" width="24.0755456" height="2.92108052"></rect>
                    <rect id="Rectangle" fill="#25B6D2" x="119.039873" y="65.3737819" width="21.659812" height="2.92108052"></rect>
                    <rect id="Rectangle" fill="#AAC1CE" x="97.3888244" y="65.3737819" width="10.8313666" height="2.92108052"></rect>
                    <g id="Group" transform="translate(47.102423, 17.891618)" fill="#415E72">
                        <rect id="Rectangle" x="2.64357787" y="47.4821638" width="25.9742479" height="2.92108052"></rect>
                        <polygon id="Path" points="0.151896187 6.51693063 7.20338455 2.88310647 7.20338455 3.93177437 1.26190678 6.9112765 1.26190678 6.94340839 7.20338455 9.92291051 7.20338455 10.9715784 0.151896187 7.34067534"></polygon>
                        <path d="M9.3094836,0.178185911 L10.6473385,0.178185911 L10.6473385,4.7672034 L10.6765493,4.7672034 C10.8897882,4.38746293 11.2257124,4.05445976 11.6346637,3.82661548 C12.0319306,3.5987712 12.5022246,3.44687501 13.0046505,3.44687501 C13.9919757,3.44687501 15.5722802,4.05445976 15.5722802,6.58995764 L15.5722802,10.9686573 L14.2344254,10.9686573 L14.2344254,6.74477491 C14.2344254,5.55881622 13.7962633,4.5568856 12.5343565,4.5568856 C11.6667956,4.5568856 10.9832627,5.16447035 10.7408131,5.8918194 C10.664865,6.07292639 10.6502596,6.27448095 10.6502596,6.53153603 L10.6502596,10.9715784 L9.31240468,10.9715784 L9.3094836,0.178185911 Z" id="Path"></path>
                        <path d="M19.2937368,1.50143539 L19.2937368,3.6133766 L21.2070445,3.6133766 L21.2070445,4.6328337 L19.2937368,4.6328337 L19.2937368,8.59966104 C19.2937368,9.51103816 19.5507919,10.0280694 20.2956674,10.0280694 C20.6461971,10.0280694 20.9061733,9.98133212 21.0726748,9.93751591 L21.1340175,10.9394465 C20.8769624,11.0475265 20.4650901,11.1205535 19.9509799,11.1205535 C19.3258687,11.1205535 18.8263639,10.9248411 18.5079661,10.5597061 C18.1253046,10.1653602 17.9909349,9.51395924 17.9909349,8.64639833 L17.9909349,4.6328337 L16.8487924,4.6328337 L16.8487924,3.6133766 L17.9909349,3.6133766 L17.9909349,1.84904397 L19.2937368,1.50143539 Z" id="Path"></path>
                        <path d="M22.711401,5.60555351 C22.711401,4.84607258 22.6967956,4.22096135 22.6500583,3.6133766 L23.8184905,3.6133766 L23.8798332,4.79933529 L23.9265705,4.79933529 C24.3384429,4.10119704 25.0219757,3.44687501 26.2371452,3.44687501 C27.2419969,3.44687501 28.0014778,4.05445976 28.3198756,4.91909959 L28.3520075,4.91909959 C28.5798518,4.51014832 28.8690387,4.19175054 29.16991,3.96390626 C29.6109932,3.63090308 30.0958926,3.44687501 30.799873,3.44687501 C31.7725928,3.44687501 33.2156065,4.08367056 33.2156065,6.63669493 L33.2156065,10.9686573 L31.9069625,10.9686573 L31.9069625,6.80319652 C31.9069625,5.39231463 31.3899312,4.53935912 30.3120525,4.53935912 C29.5525716,4.53935912 28.9595922,5.10020658 28.731748,5.75452862 C28.6704053,5.93563561 28.6265891,6.18100637 28.6265891,6.42345605 L28.6265891,10.9686573 L27.317945,10.9686573 L27.317945,6.56074684 C27.317945,5.39231463 26.8009137,4.53935912 25.7843777,4.53935912 C24.9489487,4.53935912 24.3413639,5.20828656 24.1281251,5.877214 C24.055098,6.07292639 24.0229662,6.30369175 24.0229662,6.53153603 L24.0229662,10.9715784 L22.711401,10.9715784 L22.711401,5.60555351 Z" id="Path"></path>
                        <polygon id="Path" points="35.3830483 0.178185911 36.7209032 0.178185911 36.7209032 10.9686573 35.3830483 10.9686573"></polygon>
                        <polygon id="Path" points="45.9164646 7.35235966 38.8649763 10.9686573 38.8649763 9.91998943 44.8531913 6.94048731 44.8531913 6.90835542 38.8649763 3.92885329 38.8649763 2.88310647 45.9164646 6.50232523"></polygon>
                        <polygon id="Path" points="0.151896187 81.2469335 7.20338455 77.6131093 7.20338455 78.6617772 1.26190678 81.6412793 1.26190678 81.6734112 7.20338455 84.6529133 7.20338455 85.7015812 0.151896187 82.0706782"></polygon>
                        <polygon id="Path" points="8.18778869 86.309166 12.4262765 75.2908503 13.460339 75.2908503 9.2043247 86.309166"></polygon>
                        <path d="M14.5236123,74.9081887 L15.8614672,74.9081887 L15.8614672,79.4972062 L15.890678,79.4972062 C16.1039169,79.1174658 16.4398411,78.7844626 16.8487924,78.5566183 C17.2460594,78.328774 17.7163533,78.1768778 18.2187792,78.1768778 C19.2061044,78.1768778 20.7864089,78.7844626 20.7864089,81.3228816 L20.7864089,85.6986602 L19.4485541,85.6986602 L19.4485541,81.4747777 C19.4485541,80.2888191 19.010392,79.2868884 17.7484852,79.2868884 C16.8809243,79.2868884 16.1973915,79.8944732 15.9549418,80.6218222 C15.8789937,80.8029292 15.8643883,81.0044838 15.8643883,81.2615389 L15.8643883,85.7015812 L14.5265334,85.7015812 L14.5236123,74.9081887 Z" id="Path"></path>
                        <path d="M24.5078655,76.2314382 L24.5078655,78.3433794 L26.4211733,78.3433794 L26.4211733,79.3628365 L24.5078655,79.3628365 L24.5078655,83.3296639 C24.5078655,84.241041 24.7649206,84.7580722 25.5097961,84.7580722 C25.8603258,84.7580722 26.120302,84.711335 26.2868036,84.6675187 L26.3481463,85.6694494 C26.0910912,85.7775293 25.6792188,85.8505564 25.1651086,85.8505564 C24.5399974,85.8505564 24.0404926,85.654844 23.7220949,85.2897089 C23.3394333,84.895363 23.2050636,84.241041 23.2050636,83.3764012 L23.2050636,79.3628365 L22.0629211,79.3628365 L22.0629211,78.3433794 L23.2050636,78.3433794 L23.2050636,76.5790468 L24.5078655,76.2314382 Z" id="Path"></path>
                        <path d="M27.9255297,80.3355563 C27.9255297,79.5760754 27.9109243,78.9509642 27.864187,78.3433794 L29.0326192,78.3433794 L29.0939619,79.5293381 L29.1406992,79.5293381 C29.5525716,78.8311999 30.2361044,78.1768778 31.4512739,78.1768778 C32.4561256,78.1768778 33.2156065,78.7844626 33.5340043,79.6491024 L33.5661362,79.6491024 C33.7939805,79.2401511 34.0831675,78.9217534 34.3840387,78.6939091 C34.8251219,78.3609059 35.3100213,78.1768778 36.0140017,78.1768778 C36.9867215,78.1768778 38.4297353,78.8136734 38.4297353,81.3666978 L38.4297353,85.6986602 L37.1210912,85.6986602 L37.1210912,81.5331994 C37.1210912,80.1223175 36.6040599,79.269362 35.5261812,79.269362 C34.7667003,79.269362 34.173721,79.8302094 33.9458767,80.4845314 C33.884534,80.6656384 33.8407178,80.9110092 33.8407178,81.1534589 L33.8407178,85.6986602 L32.5320737,85.6986602 L32.5320737,81.2907497 C32.5320737,80.1223175 32.0150425,79.269362 30.9985064,79.269362 C30.1630774,79.269362 29.5554927,79.9382894 29.3422538,80.6072168 C29.2692268,80.8029292 29.2370949,81.0336946 29.2370949,81.2615389 L29.2370949,85.7015812 L27.9313719,85.7015812 L27.9313719,80.3355563 L27.9255297,80.3355563 Z" id="Path"></path>
                        <polygon id="Path" points="40.5942559 74.9081887 41.9321108 74.9081887 41.9321108 85.6986602 40.5942559 85.6986602"></polygon>
                        <path d="M51.1276723,82.0823625 L44.0761839,85.6986602 L44.0761839,84.6499923 L50.064399,81.6704901 L50.064399,81.6383583 L44.0761839,78.6588561 L44.0761839,77.6101882 L51.1276723,81.229407 C51.1276723,81.229407 51.1276723,82.0823625 51.1276723,82.0823625 Z" id="Path"></path>
                    </g>
                </g>
            </g>
        </g>
    </g>
</svg>