<?xml version="1.0" encoding="UTF-8"?>
<svg width="268px" height="204px" viewBox="0 0 268 204" version="1.1" xmlns="http://www.w3.org/2000/svg" xmlns:xlink="http://www.w3.org/1999/xlink">
    <!-- Generator: Sketch 52.6 (67491) - http://www.bohemiancoding.com/sketch -->
    <title>TIE-Ipad</title>
    <desc>Created with Sketch.</desc>
    <g id="Maquettes" stroke="none" stroke-width="1" fill="none" fill-rule="evenodd">
        <g id="Maquette-DPS-V2.3" transform="translate(-1020.000000, -5889.000000)">
            <rect fill="#FEFDFC" x="0" y="0" width="1440" height="6786"></rect>
            <g id="Les-projets-en-cours" transform="translate(107.000000, 4470.000000)">
                <g id="TIE" transform="translate(453.000000, 161.000000)"></g>
            </g>
            <g id="Competences" transform="translate(121.000000, 5251.000000)">
                <g id="Évolution" transform="translate(873.000000, 655.000000)">
                    <g id="connection" transform="translate(74.000000, 0.000000)">
                        <ellipse id="Oval" fill="#EBF0F2" cx="86.4474658" cy="85.5829912" rx="65.2678367" ry="64.8355994"></ellipse>
                        <path d="M87.1198904,170.301508 L87.088291,167.681364 C87.9493743,167.670883 88.8078244,167.644682 89.6636411,167.608 L89.7821388,170.225524 C88.897356,170.264826 88.0125731,170.291027 87.1198904,170.301508 Z M84.457642,170.296267 C83.5702259,170.277926 82.685443,170.249105 81.8059268,170.207182 L81.929691,167.592279 C82.788141,167.631581 83.6465911,167.657782 84.512941,167.676123 L84.457642,170.296267 Z M92.4364874,170.073555 L92.2416245,167.458651 C93.1000745,167.398388 93.953258,167.319784 94.8064414,167.228079 L95.0934692,169.832502 C94.2113196,169.929447 93.3265368,170.008052 92.4364874,170.073555 Z M79.1489449,170.036873 C78.2615288,169.966129 77.3820125,169.879664 76.5024962,169.785339 L76.789524,167.180916 C77.6427074,167.275241 78.5011575,167.353846 79.3648741,167.42721 L79.1489449,170.036873 Z M97.7241182,169.518085 L97.3686251,166.924142 C98.2191753,166.806235 99.0697255,166.677848 99.9150091,166.536361 L100.357401,169.119823 C99.4857841,169.269171 98.6062678,169.400178 97.7241182,169.518085 Z M73.8613141,169.457821 C72.9817978,169.332054 72.1075481,169.193187 71.2332983,169.043839 L71.6862229,166.465617 C72.5288732,166.612345 73.3794234,166.743352 74.2326069,166.863879 L73.8613141,169.457821 Z M102.97225,168.637716 L102.453493,166.069975 C103.298777,165.902286 104.141427,165.718876 104.970911,165.524985 L105.573933,168.079625 C104.712849,168.278756 103.8465,168.464787 102.97225,168.637716 Z M68.6210823,168.546011 C67.7494659,168.367841 66.8857493,168.173951 66.024666,167.969579 L66.6355875,165.420179 C67.4703379,165.61931 68.310355,165.80534 69.1556386,165.98089 L68.6210823,168.546011 Z M108.154549,167.43245 L107.475163,164.89877 C108.30728,164.678678 109.136764,164.442865 109.955714,164.199192 L110.711466,166.70667 C109.868816,166.963444 109.012999,167.201877 108.154549,167.43245 Z M63.4440493,167.314543 C62.5882326,167.07873 61.7376824,166.835057 60.8897655,166.580903 L61.6613172,164.073425 C62.4829013,164.324959 63.3071186,164.563392 64.1366026,164.786104 L63.4440493,167.314543 Z M113.26575,165.902286 L112.4231,163.421009 C113.242051,163.148514 114.053102,162.860298 114.861519,162.561602 L115.783168,165.019297 C114.945784,165.328474 114.108401,165.61931 113.26575,165.902286 Z M58.3565479,165.768658 C57.5165309,165.483063 56.6791471,165.181746 55.8522965,164.869949 L56.7844784,162.417494 C57.5876295,162.718811 58.3960472,163.009647 59.2123647,163.284762 L58.3565479,165.768658 Z M118.266353,164.055084 L117.268339,161.628831 C118.07149,161.303933 118.861475,160.968554 119.648827,160.620075 L120.717939,163.014887 C119.906888,163.376467 119.090571,163.719706 118.266353,164.055084 Z M53.3770111,163.897875 C52.555427,163.559877 51.7443761,163.211398 50.9359584,162.852438 L52.0208707,160.462866 C52.797689,160.813966 53.5850404,161.151964 54.3802917,161.474242 L53.3770111,163.897875 Z M123.137926,161.903946 L121.995081,159.545816 C122.771899,159.171135 123.540818,158.788594 124.301836,158.392953 L125.521046,160.71702 C124.733695,161.120523 123.938443,161.521405 123.137926,161.903946 Z M48.5396715,161.733636 C47.741787,161.348475 46.9544356,160.947593 46.174984,160.538851 L47.4047269,158.220023 C48.1604789,158.618285 48.926764,159.003446 49.6983158,159.378127 L48.5396715,161.733636 Z M127.867301,159.448871 L126.576992,157.166725 C127.327478,156.744882 128.072697,156.315178 128.807382,155.874994 L130.171423,158.115217 C129.410404,158.573743 128.644119,159.016547 127.867301,159.448871 Z M43.8418959,159.270701 C43.0703442,158.835757 42.3066924,158.387712 41.5535736,157.929187 L42.9228804,155.691584 C43.6549329,156.134388 44.3948852,156.566712 45.1453707,156.991176 L43.8418959,159.270701 Z M132.428146,156.71344 L130.998273,154.512519 C131.719793,154.046134 132.438679,153.571887 133.144398,153.084541 L134.640103,155.238299 C133.913317,155.738747 133.175998,156.231334 132.428146,156.71344 Z M39.3073838,156.516929 C38.5647982,156.034823 37.8274792,155.542236 37.1033265,155.039168 L38.609564,152.89065 C39.3152837,153.380617 40.0236366,153.857483 40.7425227,154.323869 L39.3073838,156.516929 Z M136.809927,153.697654 L135.240491,151.588438 C135.933044,151.08013 136.615064,150.558722 137.291818,150.032073 L138.92182,152.088886 C138.226633,152.639116 137.523547,153.173626 136.809927,153.697654 Z M34.9493016,153.493283 C34.2383154,152.966634 33.5378623,152.429505 32.8426758,151.881894 L34.4779441,149.830322 C35.1520644,150.362211 35.8340845,150.88362 36.5213712,151.397168 L34.9493016,153.493283 Z M140.99158,150.417234 L139.298379,148.410204 C139.9567,147.859973 140.60712,147.301883 141.249641,146.728071 L143.003407,148.682699 C142.342453,149.274851 141.670966,149.851283 140.99158,150.417234 Z M30.7887156,150.207622 C30.1093288,149.636431 29.4404751,149.057379 28.7795212,148.465227 L30.5438204,146.52108 C31.1784414,147.092271 31.8262288,147.652982 32.4845494,148.203212 L30.7887156,150.207622 Z M144.959936,146.89052 L143.145604,144.990915 C143.769692,144.398763 144.38588,143.80137 144.988902,143.190876 L146.861166,145.038078 C146.234445,145.666913 145.599824,146.285267 144.959936,146.89052 Z M26.8335256,146.662567 C26.193638,146.054694 25.5616503,145.43372 24.9401956,144.804885 L26.8177259,142.968164 C27.4207476,143.576038 28.0343023,144.181291 28.6531237,144.770823 L26.8335256,146.662567 Z M148.699197,143.127993 L146.771634,141.346295 C147.356223,140.71746 147.930278,140.083385 148.499067,139.43621 L150.479296,141.160265 C149.894707,141.828401 149.302218,142.483438 148.699197,143.127993 Z M23.1100644,142.88956 C22.5070428,142.242384 21.9171876,141.584728 21.3325989,140.916591 L23.3233603,139.197777 C23.8868827,139.844952 24.4609383,140.481647 25.0428936,141.113102 L23.1100644,142.88956 Z M152.201462,139.145374 L150.165935,137.481582 C150.711025,136.821306 151.245581,136.150549 151.772237,135.471932 L153.855164,137.07284 C153.312707,137.775039 152.762351,138.466757 152.201462,139.145374 Z M19.6209654,138.88598 C19.057443,138.202122 18.507087,137.507784 17.9698974,136.805585 L20.0633568,135.215158 C20.5847467,135.896395 21.1140365,136.567152 21.6564926,137.230049 L19.6209654,138.88598 Z M155.445666,134.955763 L153.307441,133.425599 C153.810398,132.731261 154.302822,132.029062 154.787346,131.319003 L156.962437,132.791524 C156.46738,133.522545 155.961789,134.240464 155.445666,134.955763 Z M16.3872947,134.680648 C15.8711714,133.960109 15.3629479,133.234329 14.8705241,132.498068 L17.061415,131.043888 C17.5406724,131.753947 18.0304629,132.458766 18.5334198,133.155724 L16.3872947,134.680648 Z M158.418642,130.577503 L156.190885,129.175725 C156.649076,128.457806 157.096734,127.729406 157.531226,126.993145 L159.803748,128.318938 C159.35609,129.0814 158.892633,129.833382 158.418642,130.577503 Z M13.4248522,130.273566 C12.9534946,129.526825 12.4953035,128.772223 12.0476455,128.009761 L14.3201681,126.683968 C14.7546597,127.425469 15.2023177,128.15911 15.6578755,128.88751 L13.4248522,130.273566 Z M161.115123,126.026312 L158.805734,124.768643 C159.21916,124.019282 159.619419,123.26468 160.009144,122.502218 L162.355399,123.694384 C161.952507,124.475187 161.539081,125.25599 161.115123,126.026312 Z M10.7389042,125.696174 C10.3149458,124.917991 9.90415374,124.134568 9.50389483,123.345905 L11.8554159,122.16946 C12.2425084,122.934542 12.6454006,123.697004 13.0535594,124.448985 L10.7389042,125.696174 Z M163.51931,121.317913 L161.138822,120.201732 C161.502215,119.431409 161.852442,118.653227 162.192135,117.869804 L164.609488,118.907381 C164.259262,119.717005 163.895869,120.521389 163.51931,121.317913 Z M8.34261734,120.953713 C7.96605797,120.151949 7.60793158,119.344945 7.25770503,118.52746 L9.68032474,117.497743 C10.0200182,118.289027 10.3702447,119.07245 10.7283711,119.845392 L8.34261734,120.953713 Z M165.623302,116.470647 L163.17435,115.503813 C163.490343,114.70991 163.793171,113.913386 164.085465,113.106382 L166.563384,113.99199 C166.265823,114.822576 165.949829,115.653162 165.623302,116.470647 Z M6.25442448,116.075005 C5.93053076,115.249659 5.61980345,114.419074 5.32224255,113.583248 L7.80542775,112.70812 C8.09245552,113.520364 8.39528298,114.322128 8.70864358,115.118652 L6.25442448,116.075005 Z M167.427101,111.492373 L164.922849,110.677508 C165.188811,109.867883 165.441606,109.053019 165.678601,108.230293 L168.209185,108.950833 C167.961657,109.805 167.703595,110.651307 167.427101,111.492373 Z M4.46905908,111.067909 C4.19783101,110.226843 3.94240263,109.380537 3.70014066,108.52899 L6.23072494,107.81369 C6.46772035,108.633796 6.71524888,109.453901 6.97594383,110.271386 L4.46905908,111.067909 Z M168.912272,106.401433 L166.360621,105.751637 C166.573917,104.926292 166.774047,104.093086 166.963643,103.25464 L169.531093,103.828451 C169.338863,104.693099 169.130834,105.549886 168.912272,106.401433 Z M3.01022069,105.966489 C2.79692483,105.114942 2.59416209,104.258155 2.40456577,103.396127 L4.97728257,102.832796 C5.16161233,103.668622 5.36174178,104.507069 5.56977108,105.332414 L3.01022069,105.966489 Z M170.073549,101.242369 L167.487666,100.747162 C167.65093,99.9113358 167.798393,99.0702695 167.932691,98.223963 L170.534374,98.6327054 C170.39481,99.5052134 170.239446,100.375101 170.073549,101.242369 Z M1.87527603,100.796944 C1.71727909,99.9349171 1.56981528,99.0650292 1.4328846,98.1925212 L4.03456751,97.7942593 C4.16623162,98.6405659 4.30842886,99.4868724 4.4664258,100.327939 L1.87527603,100.796944 Z M170.9083,96.0125613 L168.296084,95.679803 C168.404048,94.8361166 168.50148,93.9871899 168.580478,93.1304028 L171.203227,93.3766963 C171.118962,94.262305 171.021531,95.1374332 170.9083,96.0125613 Z M1.06949164,95.5723771 C0.96152707,94.697249 0.86936219,93.8195007 0.787730439,92.9391323 L3.4104796,92.698079 C3.48684479,93.552246 3.57900967,94.4037928 3.68434096,95.2553397 L1.06949164,95.5723771 Z M171.419156,90.7382112 L168.791141,90.570522 C168.84644,89.7189751 168.888572,88.8648081 168.920172,88.0054009 L171.553454,88.0971059 C171.521854,88.9800945 171.474455,89.8604629 171.419156,90.7382112 Z M0.590234267,90.298027 C0.537568621,89.4202787 0.498069386,88.5399103 0.471736564,87.6543016 L3.10501886,87.5783174 C3.13135168,88.4377246 3.16558435,89.2918916 3.21825,90.1434385 L0.590234267,90.298027 Z M171.59822,85.4455201 L168.964937,85.4455201 L168.964937,85.1546841 C168.964937,84.2978969 168.951771,83.4411098 168.922805,82.5921831 L171.556087,82.5057183 C171.585053,83.3834666 171.59822,84.2664552 171.59822,85.1546841 L171.59822,85.4455201 Z M3.06551962,85.0131963 L0.432237329,85.0027157 C0.434870611,84.117107 0.450670305,83.2341184 0.47963641,82.3563701 L3.1129187,82.4428349 C3.0839526,83.2970019 3.0681529,84.153789 3.06551962,85.0131963 Z M168.80694,80.0296821 C168.751642,79.172895 168.688443,78.3213482 168.606811,77.4698013 L171.22956,77.2235078 C171.311192,78.0986359 171.382291,78.9816245 171.434956,79.8646131 L168.80694,80.0296821 Z M3.23404969,79.8777138 L0.60603396,79.7152649 C0.661332889,78.8348964 0.732431511,77.9519079 0.814063262,77.0767797 L3.43681243,77.3230733 C3.35254739,78.172 3.28671533,79.0235468 3.23404969,79.8777138 Z M168.33295,74.9151608 C168.224985,74.063614 168.106487,73.2146873 167.977457,72.3683807 L170.579139,71.9753591 C170.713437,72.845247 170.837201,73.7151348 170.945166,74.5928831 L168.33295,74.9151608 Z M3.71594035,74.7710529 L1.10372431,74.4487752 C1.21432217,73.5684067 1.33808644,72.6958987 1.4776504,71.8233908 L4.07933331,72.2321332 C3.94503591,73.0758196 3.82127164,73.9221262 3.71594035,74.7710529 Z M167.540332,69.8451819 C167.379701,68.9988754 167.208538,68.1578091 167.026842,67.3246033 L169.599558,66.7665126 C169.786521,67.6259199 169.965585,68.4905674 170.128848,69.3578351 L167.540332,69.8451819 Z M4.51909145,69.7063143 L1.93320824,69.2137272 C2.09910502,68.3464595 2.27816822,67.4818119 2.46776454,66.6250248 L5.04048134,67.1883558 C4.8535183,68.0268019 4.67972167,68.865248 4.51909145,69.7063143 Z M166.434353,64.8354664 C166.221057,64.0048807 165.994595,63.1769151 165.760233,62.3541899 L168.290817,61.6388905 C168.535712,62.4825769 168.767441,63.3341238 168.986004,64.1935311 L166.434353,64.8354664 Z M5.63823642,64.6939786 L3.08658588,64.0441828 C3.30514831,63.1900159 3.53951044,62.338469 3.78440569,61.4895423 L6.31498997,62.2153222 C6.07536128,63.0406676 5.85153229,63.866013 5.63823642,64.6939786 Z M165.009747,59.901735 C164.746419,59.08425 164.472558,58.2746255 164.182897,57.4676211 L166.660815,56.5820124 C166.96101,57.4152182 167.248037,58.2562845 167.519265,59.102591 L165.009747,59.901735 Z M7.06547543,59.7707278 L4.56122396,58.955863 C4.83771861,58.1147967 5.12211309,57.2789707 5.41967399,56.4536253 L7.89759263,57.3339937 C7.61056486,58.1409981 7.33143694,58.9506227 7.06547543,59.7707278 Z M163.274414,55.0544684 C162.961054,54.2553244 162.634527,53.4640409 162.294833,52.6753775 L164.717453,51.6404206 C165.06768,52.4552854 165.40474,53.2727703 165.728633,54.0981157 L163.274414,55.0544684 Z M8.80344174,54.9365619 L6.35448921,53.974969 C6.67838293,53.157484 7.01544306,52.3426192 7.36566961,51.5329946 L9.78302275,52.5705717 C9.44332934,53.3539948 9.11680233,54.1426582 8.80344174,54.9365619 Z M161.238887,50.3277284 C160.872861,49.5495455 160.498935,48.7792232 160.109209,48.0167612 L162.46073,46.8350762 C162.858356,47.6237396 163.250715,48.4176433 163.624641,49.2220275 L161.238887,50.3277284 Z M10.8363357,50.2360233 L8.45058191,49.1303225 C8.824508,48.3311785 9.21160049,47.539895 9.60922612,46.7538518 L11.9607472,47.9355368 C11.5736547,48.6953786 11.1997286,49.4630808 10.8363357,50.2360233 Z M158.911066,45.7372358 C158.500274,44.9852545 158.076315,44.2385134 157.641824,43.4996328 L159.914346,42.1738398 C160.364637,42.9389219 160.799129,43.7066241 161.225721,44.484807 L158.911066,45.7372358 Z M13.1562574,45.6743524 L10.8468688,44.4166832 C11.2708272,43.6437407 11.7079521,42.8786586 12.1529768,42.1188168 L14.4254994,43.4446097 C13.9910079,44.1756299 13.5696827,44.922371 13.1562574,45.6743524 Z M156.301483,41.303952 C155.840658,40.5807922 155.371934,39.8628727 154.892677,39.1528137 L157.078301,37.6881531 C157.573358,38.4191733 158.057882,39.1606741 158.531873,39.9126555 L156.301483,41.303952 Z M15.7632068,41.2541692 L13.53545,39.8576324 C14.0094408,39.1135115 14.4886982,38.3746309 14.9837553,37.6436106 L17.1693796,39.1082712 C16.6927555,39.8157101 16.221398,40.5310095 15.7632068,41.2541692 Z M153.420672,37.0409775 C152.920348,36.3466393 152.406858,35.6627817 151.882835,34.9841644 L153.971028,33.3884966 C154.510851,34.0880751 155.042774,34.7981341 155.561531,35.5160536 L153.420672,37.0409775 Z M18.6387511,37.0016753 L16.5031592,35.4715112 C17.0245491,34.7562118 17.5512055,34.0487729 18.0883951,33.3518146 L20.1792212,34.942242 C19.6551981,35.6208594 19.1443413,36.304717 18.6387511,37.0016753 Z M150.279166,32.9640332 C149.734077,32.3011368 149.178454,31.6461007 148.614932,31.0015453 L150.600427,29.2827307 C151.185015,29.9482473 151.753804,30.6242445 152.314693,31.305482 L150.279166,32.9640332 Z M21.7776236,32.9325915 L19.7420964,31.2740403 C20.3029855,30.5901827 20.8744078,29.9168056 21.4563632,29.2539092 L23.441858,30.9727237 C22.8757023,31.6172792 22.322713,32.269695 21.7776236,32.9325915 Z M146.895398,29.0940804 C146.308177,28.4678659 145.713055,27.8442716 145.110033,27.233778 L146.99283,25.4022973 C147.609018,26.0285117 148.222573,26.6652068 148.822961,27.3123824 L146.895398,29.0940804 Z M25.1613913,29.0678789 L23.2338287,27.2861809 C23.8368504,26.6390053 24.4477718,26.0049304 25.0692265,25.3760958 L26.9467567,27.2128169 C26.3437351,27.8206903 25.74598,28.4390443 25.1613913,29.0678789 Z M143.274635,25.4389793 C142.653181,24.8468267 142.01856,24.2677749 141.378672,23.6939633 L143.137705,21.7445761 C143.798659,22.3341085 144.446446,22.9341215 145.088967,23.541995 L143.274635,25.4389793 Z M28.7847878,25.415398 L26.967823,23.5184137 C27.6103439,22.9131604 28.2581313,22.3105272 28.9190852,21.7209948 L30.6781177,23.670382 C30.0382302,24.2441936 29.4062424,24.8258656 28.7847878,25.415398 Z M139.432676,22.0092106 C138.779622,21.4589804 138.113402,20.9166105 137.441915,20.3899616 L139.071917,18.3331484 C139.769737,18.8807586 140.45439,19.4388493 141.133777,20.0100407 L139.432676,22.0092106 Z M32.6241134,21.9908696 L30.9309128,19.9838392 C31.6102997,19.415268 32.2975864,18.8571773 32.9927729,18.3095671 L34.6227746,20.3663803 C33.9486544,20.9008897 33.2824339,21.4432595 32.6241134,21.9908696 Z M135.395855,18.8309758 C134.705935,18.3226679 134.008115,17.8222203 133.302395,17.3348735 L134.803366,15.1863553 C135.532785,15.689423 136.254305,16.2055914 136.962658,16.7296202 L135.395855,18.8309758 Z M36.6741015,18.8047744 L35.1046653,16.7007987 C35.8182848,16.1741497 36.5398041,15.6606014 37.2692233,15.1549136 L38.7701942,17.3034318 C38.0671079,17.7933988 37.3666548,18.2912261 36.6741015,18.8047744 Z M131.166803,15.9042748 C130.447917,15.4378892 129.721131,14.9846043 128.986446,14.5417999 L130.355752,12.3015767 C131.111504,12.7601019 131.86199,13.2291077 132.604575,13.7085941 L131.166803,15.9042748 Z M40.913686,15.8754533 L39.4785472,13.6797725 C40.2237661,13.197666 40.9742515,12.7286602 41.7352701,12.2701349 L43.0993103,14.5103582 C42.3646246,14.9531625 41.6352054,15.4090676 40.913686,15.8754533 Z M126.766589,13.252689 C126.018736,12.8308458 125.265618,12.4247234 124.504599,12.0238414 L125.734342,9.70501384 C126.516427,10.1137563 127.295878,10.5355995 128.064797,10.9679233 L126.766589,13.252689 Z M45.334967,13.2107667 L44.0341255,10.9338614 C44.8083105,10.4962974 45.5903954,10.0744542 46.3830133,9.66309153 L47.602223,11.9871594 C46.8385712,12.3828011 46.0828192,12.7889235 45.334967,13.2107667 Z M122.208377,10.8683578 C121.439459,10.4962974 120.66264,10.1373376 119.880555,9.79147859 L120.949668,7.39666686 C121.763352,7.75824675 122.56387,8.12768708 123.359121,8.51546841 L122.208377,10.8683578 Z M49.9063451,10.8316758 L48.758234,8.4735461 C49.5587518,8.09100506 50.3619029,7.71632445 51.1755871,7.35474456 L52.2499663,9.744316 C51.4652482,10.0954153 50.68053,10.4569952 49.9063451,10.8316758 Z M117.515868,8.78010296 C116.720617,8.45258495 115.922732,8.1407878 115.114314,7.83947122 L116.046496,5.38701632 C116.873347,5.69881347 117.700198,6.0210912 118.519148,6.3538495 L117.515868,8.78010296 Z M54.6278202,8.73294037 L53.6298062,6.30668691 C54.4513903,5.97130846 55.2808742,5.64903073 56.118258,5.33985373 L57.0346402,7.79754892 C56.2288558,8.09624535 55.4257047,8.4080425 54.6278202,8.73294037 Z M112.686428,6.98006395 C111.875377,6.70756896 111.05906,6.4429344 110.232209,6.19402071 L110.998494,3.68654278 C111.849044,3.94593705 112.694328,4.21319175 113.534345,4.49878746 L112.686428,6.98006395 Z M59.4730596,6.9355215 L58.6304093,4.45424501 C59.4704263,4.17126945 60.3209765,3.9013946 61.1767933,3.64200033 L61.9378119,6.14947826 C61.1109612,6.39839195 60.2893771,6.66302651 59.4730596,6.9355215 Z M107.75429,5.48396165 C106.92744,5.2612494 106.095323,5.04901773 105.260572,4.85250692 L105.863594,2.30310669 C106.729944,2.50485778 107.591027,2.72232975 108.44421,2.95552257 L107.75429,5.48396165 Z M64.4183638,5.44727964 L63.7337104,2.91360027 C64.5895271,2.68564773 65.4479771,2.47079591 66.314327,2.26904481 L66.9173487,4.81844505 C66.0825982,5.01495585 65.2478477,5.22456738 64.4183638,5.44727964 Z M102.737888,4.29703636 C101.897871,4.126727 101.052587,3.96689821 100.20467,3.81754999 L100.652328,1.23932817 C101.526578,1.38867639 102.400828,1.55112532 103.267177,1.72929512 L102.737888,4.29703636 Z M69.4373998,4.27083492 L68.9081101,1.70309368 C69.7770932,1.52754402 70.651343,1.36509509 71.528226,1.21574687 L71.9706174,3.79920898 C71.1200672,3.94331691 70.2747836,4.09790541 69.4373998,4.27083492 Z M97.6582862,3.42714852 C96.8103693,3.30924203 95.9571858,3.20181612 95.0961025,3.11011108 L95.3831303,0.505687816 C96.2679131,0.602633149 97.1474294,0.710059058 98.0216791,0.833205832 L97.6582862,3.42714852 Z M74.5222679,3.40618736 L74.1562417,0.812244679 C75.0331247,0.689097905 75.912641,0.581671996 76.8000571,0.489966951 L77.0765518,3.09439021 C76.220735,3.18609526 75.3675515,3.28828088 74.5222679,3.40618736 Z M92.5365521,2.87167796 C91.6781021,2.8087945 90.819652,2.75377148 89.9559355,2.70922903 L90.0902328,0.0943251885 C90.9750157,0.138867639 91.8597985,0.191270521 92.7393148,0.259394268 L92.5365521,2.87167796 Z M79.6466353,2.86119738 L79.4465058,0.251533836 C80.3286554,0.183410089 81.2160715,0.128387062 82.1034877,0.0890849002 L82.2219854,2.70922903 C81.3582688,2.7432909 80.502452,2.79569378 79.6466353,2.86119738 Z M87.3779521,2.6306247 L86.0165451,2.62014412 L84.7947022,2.62800456 L84.7631028,0.00786043237 L86.0165451,0 L87.4227179,0.0104805765 L87.3779521,2.6306247 Z" id="Shape" fill="#8BA0AE" fill-rule="nonzero"></path>
                        <circle id="Oval" fill="#E04F5F" cx="86.4474658" cy="85.1507538" r="32.4177997"></circle>
                        <g id="Group" opacity="0.25" transform="translate(73.048109, 71.751397)" fill="#FFFFFF">
                            <circle id="Oval" cx="13.4019717" cy="13.4045862" r="13.347067"></circle>
                        </g>
                        <rect id="Rectangle" fill="#000000" x="85.1507538" y="19.0184425" width="2.59342397" height="29.3921384"></rect>
                        <polygon id="Path" fill="#E04F5F" points="86.0152285 9.50922124 77.3704819 24.2052904 94.6599751 24.2052904"></polygon>
                        <rect id="Rectangle" fill="#000000" x="85.1507538" y="121.890927" width="2.59342397" height="29.3921384"></rect>
                        <polygon id="Path" fill="#E04F5F" points="86.0152285 160.792286 94.6599751 146.096217 77.3704819 146.096217"></polygon>
                        <polygon id="Rectangle" fill="#000000" transform="translate(49.844423, 48.842566) rotate(135.000000) translate(-49.844423, -48.842566) " points="48.5094822 34.2767986 51.1336029 34.2809212 51.179363 63.4083324 48.5552424 63.4042099"></polygon>
                        <polygon id="Path" fill="#E04F5F" points="32.4177997 31.1210877 36.8205989 47.5461062 48.8428182 35.5238869"></polygon>
                        <polygon id="Rectangle" fill="#000000" transform="translate(122.726592, 121.464030) rotate(135.000000) translate(-122.726592, -121.464030) " points="121.391651 106.898263 124.015772 106.902386 124.061532 136.029797 121.437411 136.025675"></polygon>
                        <polygon id="Path" fill="#E04F5F" points="140.477132 139.18042 136.074333 122.755401 124.052113 134.777621"></polygon>
                        <rect id="Rectangle" fill="#000000" x="20.3151545" y="83.8540419" width="29.3921384" height="2.59342397"></rect>
                        <polygon id="Path" fill="#E04F5F" points="9.94145857 85.5829912 24.6375278 94.2277378 24.6375278 76.9382446"></polygon>
                        <rect id="Rectangle" fill="#000000" x="123.187639" y="83.8540419" width="29.3921384" height="2.59342397"></rect>
                        <polygon id="Path" fill="#E04F5F" points="162.088998 85.5829912 147.392929 76.9382446 147.392929 94.2277378"></polygon>
                        <polygon id="Rectangle" fill="#000000" transform="translate(122.717213, 48.838383) rotate(135.000000) translate(-122.717213, -48.838383) " points="108.151446 47.5034426 137.278857 47.5492028 137.28298 50.1733234 108.155568 50.1275633"></polygon>
                        <polygon id="Path" fill="#E04F5F" points="140.477132 31.1210877 124.052113 35.5238869 136.074333 47.5461062"></polygon>
                        <polygon id="Rectangle" fill="#000000" transform="translate(49.853805, 121.500017) rotate(135.000000) translate(-49.853805, -121.500017) " points="35.2880383 120.165077 64.4154496 120.210837 64.4195722 122.834957 35.2921609 122.789197"></polygon>
                        <polygon id="Path" fill="#E04F5F" points="32.4177997 139.18042 48.8428182 134.777621 36.8205989 122.755401"></polygon>
                    </g>
                </g>
            </g>
        </g>
    </g>
</svg>