<?xml version="1.0" encoding="UTF-8"?>
<svg width="268px" height="204px" viewBox="0 0 268 204" version="1.1" xmlns="http://www.w3.org/2000/svg" xmlns:xlink="http://www.w3.org/1999/xlink">
    <!-- Generator: Sketch 52.6 (67491) - http://www.bohemiancoding.com/sketch -->
    <title>TIE-Ipad</title>
    <desc>Created with Sketch.</desc>
    <defs>
        <polygon id="path-1" points="0 0 480 0 480 480 0 480"></polygon>
    </defs>
    <g id="Maquettes" stroke="none" stroke-width="1" fill="none" fill-rule="evenodd">
        <g id="Maquette-DPS-V2.3" transform="translate(-148.000000, -5400.000000)">
            <rect fill="#FEFDFC" x="0" y="0" width="1440" height="6786"></rect>
            <g id="Les-projets-en-cours" transform="translate(107.000000, 4470.000000)">
                <g id="TIE" transform="translate(41.000000, 161.000000)"></g>
            </g>
            <g id="Competences" transform="translate(121.000000, 5251.000000)">
                <g id="Design" transform="translate(0.000000, 154.000000)">
                    <g id="draw" transform="translate(75.000000, 0.000000)">
                        <path d="M0,137.789474 L0,30.2935093 C0.0342868668,28.4008039 1.56005244,26.8763624 3.45440183,26.8421053 L166.545598,26.8421053 C168.439948,26.8763624 169.965713,28.4008039 170,30.2935093 L170,137.789474 L0,137.789474 Z" id="Path" fill="#415E72"></path>
                        <g id="Group" transform="translate(0.000000, 136.894737)" fill="#CFDCE5">
                            <path d="M169.997143,0.215582263 L169.997143,14.09908 C169.962857,16.0048272 168.437143,17.5397729 166.542857,17.5742661 L3.45714286,17.5742661 C1.56285714,17.5397729 0.0371428571,16.0048272 0.00285714286,14.09908 L0.00285714286,0.215582263 L169.997143,0.215582263 Z" id="Path"></path>
                            <rect id="Rectangle" x="48.6114286" y="42.1563929" width="72.78" height="3.47518608"></rect>
                        </g>
                        <polygon id="Path" fill="#AEC4CE" points="109.157895 178.947368 60.8421053 178.947368 64.2944569 154.789474 105.705543 154.789474"></polygon>
                        <rect id="Rectangle" fill="#FFFFFF" x="7.15789474" y="34" width="155.684211" height="96.6315789"></rect>
                        <polygon id="Path" fill="#94A7AF" points="105.855668 154.789474 64.5539787 154.789474 62.6315789 168.210526 106.473684 159.108505"></polygon>
                        <polygon id="Path" fill="#FFD07D" points="71.5789474 118.105263 25.0526316 118.105263 25.0526316 0 71.5789474 0 71.5789474 11.3968949"></polygon>
                        <g id="Group" transform="translate(53.684211, 7.157895)" fill="#FFFFFF">
                            <rect id="Rectangle" x="0.280701754" y="0.292042105" width="17.3670175" height="2.86315789"></rect>
                            <rect id="Rectangle" x="8.95438596" y="10.3388632" width="8.68491228" height="2.86315789"></rect>
                            <rect id="Rectangle" x="0.280701754" y="20.3856842" width="17.3670175" height="2.86315789"></rect>
                            <rect id="Rectangle" x="8.95438596" y="30.4353684" width="8.68491228" height="2.86315789"></rect>
                            <rect id="Rectangle" x="0.280701754" y="40.4821895" width="17.3670175" height="2.86315789"></rect>
                            <rect id="Rectangle" x="8.95438596" y="50.5261474" width="8.68491228" height="2.86315789"></rect>
                            <rect id="Rectangle" x="0.280701754" y="60.5729684" width="17.3670175" height="2.86315789"></rect>
                            <rect id="Rectangle" x="8.95438596" y="70.6197895" width="8.68491228" height="2.86315789"></rect>
                            <rect id="Rectangle" x="0.280701754" y="80.6694737" width="17.3670175" height="2.86315789"></rect>
                            <rect id="Rectangle" x="0.280701754" y="100.760253" width="17.3670175" height="2.86315789"></rect>
                            <rect id="Rectangle" x="8.95438596" y="90.7191579" width="8.68491228" height="2.86315789"></rect>
                        </g>
                        <polygon id="Path" fill="#F9B53D" points="33.1052632 118.105263 25.0526316 118.105263 25.0526316 0 33.1052632 0 33.1052632 11.3968949"></polygon>
                        <polygon id="Path" fill="#CFDCE5" points="82.3157895 110.052632 105.258266 98.3074288 144.947368 36.2003929 122.910971 22.3684211 83.2218677 84.475457"></polygon>
                        <g id="Group" transform="translate(83.210526, 29.526316)" fill="#415E72">
                            <polyline id="Path" points="0.625982347 66.3422316 0.133732592 80.4289684 12.5793998 73.9610947"></polyline>
                            <polygon id="Rectangle" transform="translate(43.510249, 11.488866) rotate(-57.649652) translate(-43.510249, -11.488866) " points="42.4171588 -1.40714002 44.9300238 -1.44219033 44.6033395 24.3848723 42.0904745 24.4199226"></polygon>
                            <polygon id="Rectangle" transform="translate(29.042706, 34.465853) rotate(-57.649652) translate(-29.042706, -34.465853) " points="-2.79183764 22.2874902 61.2159208 21.4482956 60.8772497 46.6442161 -3.13050874 47.4834107"></polygon>
                        </g>
                        <polygon id="Rectangle" fill="#E04F5F" transform="translate(129.790977, 36.220878) rotate(-57.649652) translate(-129.790977, -36.220878) " points="121.533671 23.2676605 138.030942 23.2787148 138.048283 49.1740961 121.551012 49.1630418"></polygon>
                        <g id="Group" opacity="0.25" transform="translate(83.210526, 22.368421)" fill="#FFFFFF">
                            <polygon id="Path" points="0.13364672 87.5876514 51.5648854 7.38393352 40.2646287 0.235717878 1.03789474 62.0932009"></polygon>
                        </g>
                    </g>
                </g>
            </g>
            <g id="largeDots" transform="translate(-105.588745, 5166.411255) rotate(45.000000) translate(105.588745, -5166.411255) translate(-345.588745, 4926.411255)">
                <mask id="mask-2" fill="white">
                    <use xlink:href="#path-1"></use>
                </mask>
                <g id="Duplicate-control"></g>
            </g>
        </g>
    </g>
</svg>