<?xml version="1.0" encoding="UTF-8"?>
<svg width="188px" height="173px" viewBox="0 0 188 173" version="1.1" xmlns="http://www.w3.org/2000/svg" xmlns:xlink="http://www.w3.org/1999/xlink">
    <!-- Generator: Sketch 52.6 (67491) - http://www.bohemiancoding.com/sketch -->
    <title>graph</title>
    <desc>Created with Sketch.</desc>
    <g id="Maquettes" stroke="none" stroke-width="1" fill="none" fill-rule="evenodd">
        <g id="Maquette-DPS-V2.3" transform="translate(-626.000000, -5906.000000)">
            <g id="Competences" transform="translate(121.000000, 5251.000000)">
                <g id="Analyse" transform="translate(439.000000, 655.000000)">
                    <g id="graph" transform="translate(66.000000, 0.000000)">
                        <path d="M0,122.420422 L0,3.80733371 C0.0381224102,1.71915761 1.72137345,0.0380733371 3.81224102,0 L183.867317,0 C185.958185,0.0380733371 187.641436,1.71915761 187.679558,3.80733371 L187.679558,122.420422 L0,122.420422 Z" id="Path" fill="#415E72"></path>
                        <g id="Group" transform="translate(0.000000, 122.420422)" fill="#CFDCE5">
                            <path d="M187.679558,0.0730162421 L187.679558,15.2603946 C187.641436,17.3428178 185.958185,19.0192708 183.867317,19.0572392 L3.81224102,19.0572392 C1.72137345,19.0192708 0.0381224102,17.3428178 0,15.2603946 L0,0.0730162421 L187.679558,0.0730162421 Z" id="Path"></path>
                            <rect id="Rectangle" x="53.6646236" y="45.9272163" width="80.3503108" height="3.79684459"></rect>
                        </g>
                        <polygon id="Path" fill="#AAC1CE" points="120.515046 168.625796 67.1645119 168.625796 70.9752643 141.474185 116.704294 141.474185"></polygon>
                        <rect id="Rectangle" fill="#FFFFFF" x="7.62150489" y="7.62150489" width="172.436548" height="107.177413"></rect>
                        <polygon id="Path" fill="#8BA0AE" points="116.494081 141.474185 70.7236304 141.474185 68.593544 156.717194 117.180638 146.381039"></polygon>
                        <path d="M156.393498,31.4387077 L155.288162,31.4387077 L156.759957,32.8677399 L158.231751,31.4387077 L157.126416,31.4387077 C157.129395,30.2555616 158.115557,29.2980522 159.334107,29.2951594 C159.691628,29.300945 160.04617,29.3877283 160.364959,29.5439383 L160.916137,29.0087744 C160.433484,28.7368533 159.891244,28.5893217 159.334107,28.5806434 C157.710366,28.5864289 156.396477,29.8621439 156.393498,31.4387077 Z M161.544778,31.4387077 C161.541799,32.6218538 160.555637,33.5793632 159.337087,33.5822559 C158.979566,33.5764704 158.625024,33.4896871 158.306235,33.3334771 L157.755057,33.8686409 C158.23771,34.140562 158.77995,34.2880937 159.337087,34.296772 C160.960828,34.2909865 162.274717,33.0152715 162.280676,31.4387077 L163.386011,31.4387077 L161.914217,30.0096755 L160.442422,31.4387077 L161.544778,31.4387077 Z" id="Shape" fill="#415E72" fill-rule="nonzero"></path>
                        <path d="M49.5456208,53.4014502 C58.3829183,53.5941365 65.4977164,60.7089347 65.6904028,69.5462322 L73.3569846,69.5462322 C73.1613787,56.4756736 62.6103404,45.9246352 49.5397818,45.7290294 L49.5456208,53.4014502 Z" id="Path" fill="#FFD07D"></path>
                        <path d="M65.6124782,70.0225762 C65.4295603,79.1211964 57.8266677,86.3516367 48.6306196,86.1706568 C45.4089049,86.1064381 42.2727486,85.1198056 39.6056881,83.3275204 L34.7731161,89.3319676 C45.7304863,97.0878335 60.9657743,94.5862237 68.80469,83.7449419 C71.7018729,79.737112 73.2920783,74.9499009 73.3569846,70.0225762 L65.6124782,70.0225762 Z" id="Path" fill="#E04F5F"></path>
                        <path d="M34.3535422,89.0763384 L39.1282172,83.0850336 C31.8144423,77.6768241 30.2734714,67.3676982 35.6872992,60.0615133 C38.722545,55.9652684 43.485546,53.504606 48.5870937,53.3967333 L48.5870937,45.7290294 C35.2553604,45.9068734 24.5940596,56.8457424 24.7720885,70.160725 C24.8713176,77.6068527 28.4056279,84.5865042 34.3535422,89.0763384 Z" id="Path" fill="#25B6D2"></path>
                        <rect id="Rectangle" fill="#E04F5F" x="127.660207" y="69.0698881" width="5.23978461" height="9.05053706"></rect>
                        <rect id="Rectangle" fill="#25B6D2" x="133.376336" y="53.8268783" width="5.23978461" height="24.2935468"></rect>
                        <rect id="Rectangle" fill="#E04F5F" x="139.568808" y="64.3064475" width="5.23978461" height="13.8139776"></rect>
                        <rect id="Rectangle" fill="#25B6D2" x="145.761281" y="42.394621" width="5.23978461" height="35.7258042"></rect>
                        <rect id="Rectangle" fill="#E04F5F" x="151.953754" y="64.3064475" width="5.23978461" height="13.8139776"></rect>
                        <rect id="Rectangle" fill="#25B6D2" x="158.146227" y="64.3064475" width="5.23978461" height="13.8139776"></rect>
                        <polygon id="Path" fill="#53BAD8" points="85.7419301 56.2085986 81.9311776 56.2085986 81.9311776 60.019351 85.7419301 60.019351"></polygon>
                        <rect id="Rectangle" fill="#E04F5F" x="81.9311776" y="67.6408559" width="3.81075245" height="3.81075245"></rect>
                        <rect id="Rectangle" fill="#415E72" x="81.9311776" y="78.5967692" width="3.81075245" height="3.81075245"></rect>
                        <rect id="Rectangle" fill="#53BAD8" x="88.5999944" y="57.6376308" width="22.8645147" height="1"></rect>
                        <g id="Group" transform="translate(24.293547, 28.104299)" fill="#415E72">
                            <rect id="Rectangle" x="0.161054432" y="5.54389269" width="46.1494155" height="1"></rect>
                            <rect id="Rectangle" x="103.168541" y="54.7261407" width="35.7628688" height="1"></rect>
                            <rect id="Rectangle" x="0.161054432" y="0.228795571" width="46.1494155" height="1"></rect>
                        </g>
                        <g id="Group" transform="translate(43.823653, 64.782792)" fill="#E04F5F">
                            <rect id="Rectangle" x="45.2503292" y="4.34153582" width="22.6735058" height="1"></rect>
                            <rect id="Rectangle" x="0.0878931613" y="0.257497987" width="11.4407598" height="1"></rect>
                        </g>
                        <g id="Group" transform="translate(39.536557, 68.593544)" fill="#415E72">
                            <rect id="Rectangle" x="0.359827413" y="0.218557861" width="19.6588635" height="1"></rect>
                            <rect id="Rectangle" x="0.359827413" y="2.98695743" width="19.6588635" height="1"></rect>
                            <rect id="Rectangle" x="49.5713456" y="11.3212972" width="22.6398727" height="1"></rect>
                        </g>
                    </g>
                </g>
            </g>
        </g>
    </g>
</svg>