<?xml version="1.0" encoding="UTF-8"?>
<svg width="268px" height="204px" viewBox="0 0 268 204" version="1.1" xmlns="http://www.w3.org/2000/svg" xmlns:xlink="http://www.w3.org/1999/xlink">
    <!-- Generator: Sketch 52.6 (67491) - http://www.bohemiancoding.com/sketch -->
    <title>TIE-Ipad</title>
    <desc>Created with Sketch.</desc>
    <g id="Maquettes" stroke="none" stroke-width="1" fill="none" fill-rule="evenodd">
        <g id="Maquette-DPS-V2.3" transform="translate(-1018.000000, -5398.000000)">
            <rect fill="#FEFDFC" x="0" y="0" width="1440" height="6786"></rect>
            <g id="Les-projets-en-cours" transform="translate(107.000000, 4470.000000)">
                <g id="TIE" transform="translate(453.000000, 161.000000)"></g>
            </g>
            <g id="Competences" transform="translate(121.000000, 5251.000000)">
                <g id="Desktop" transform="translate(864.000000, 171.000000)">
                    <g id="responsive" transform="translate(42.000000, 0.000000)">
                        <g id="laptop" transform="translate(0.000000, -0.000000)">
                            <path d="M209.031697,135.829471 L209.030877,5.91330383 C209.030877,2.80661286 206.489039,0.264774798 203.382348,0.264774798 L22.6647227,0.264774798 C19.5580318,0.264774798 17.0161937,2.80661286 17.0161937,5.91330383 L17.0161937,135.829471 C17.0161937,135.829471 209.48982,135.829471 209.031697,135.829471 Z" id="Path" fill="#002833"></path>
                            <rect id="Rectangle" fill="#8AD5DD" x="25.4889872" y="7.78437907" width="175.069097" height="128.045092"></rect>
                            <rect id="Rectangle" fill="#E8E8E8" x="0" y="135.829471" width="225.941161" height="3.77745379"></rect>
                            <polygon id="Path" fill="#C9C9C9" points="214.644103 147.12653 11.2970581 147.12653 0 139.606925 225.941161 139.606925"></polygon>
                            <rect id="Rectangle" fill="#FF5F5F" x="80.1738089" y="79.5913043" width="10.3085655" height="28.2426451"></rect>
                            <g id="Group" transform="translate(62.663369, 63.545952)" fill="#FFFFFF">
                                <rect id="Rectangle" x="0.282426451" y="27.589534" width="10.3085655" height="16.6984639"></rect>
                                <rect id="Rectangle" x="34.7031502" y="0.370684718" width="10.3085655" height="43.9173132"></rect>
                            </g>
                            <rect id="Rectangle" fill="#FF5F5F" x="114.559229" y="35.6739911" width="10.3085655" height="72.1599583"></rect>
                            <rect id="Rectangle" fill="#FFFFFF" x="131.787243" y="50.2542567" width="10.3085655" height="57.5796928"></rect>
                            <rect id="Rectangle" fill="#FF5F5F" x="148.979953" y="73.448529" width="10.3085655" height="34.4913304"></rect>
                        </g>
                        <g id="app" transform="translate(181.000000, 47.000000)">
                            <path d="M9.5843192,120.954241 C4.66456473,120.942857 0.678292411,116.956585 0.666908482,112.03683 L0.666908482,9.39933036 C0.678292411,4.47957589 4.66456473,0.493303571 9.5843192,0.481919643 L58.2430246,0.481919643 C63.162779,0.493303571 67.1490513,4.47957589 67.1604353,9.39933036 L67.1604353,112.029241 C67.1490513,116.95279 63.1570871,120.94096 58.2335379,120.946652 L9.5843192,120.954241 Z" id="Path" fill="#FFFFFF"></path>
                            <path d="M58.2430246,0.948660714 C62.9085379,0.954352679 66.6880022,4.73381696 66.6936942,9.39933036 L66.6936942,112.029241 C66.6861049,116.692857 62.9066406,120.472321 58.2430246,120.479911 L9.5843192,120.479911 C4.9188058,120.474219 1.13934152,116.694754 1.13364955,112.029241 L1.13364955,9.39933036 C1.13934152,4.73381696 4.9188058,0.954352679 9.5843192,0.948660714 L58.2430246,0.948660714 Z M58.2430246,0 L9.5843192,0 C4.39893973,0.0151785714 0.200167411,4.21395089 0.184988839,9.39933036 L0.184988839,112.029241 C0.200167411,117.214621 4.39893973,121.413393 9.5843192,121.428571 L58.2430246,121.428571 C63.428404,121.413393 67.6271763,117.214621 67.6442522,112.029241 L67.6442522,9.39933036 C67.6290737,4.21395089 63.428404,0.01328125 58.2430246,0 Z" id="Shape" fill="#AAC1CE" fill-rule="nonzero"></path>
                            <rect id="Rectangle" fill="#8AD5DD" x="4.63420759" y="9.58147321" width="58.5589286" height="95.7578125"></rect>
                            <g id="Group" transform="translate(23.953683, 4.268973)" fill="#AAC1CE">
                                <path d="M18.7426897,1.97511161 L6.75920759,1.97511161 C6.21847098,1.97321429 5.78208705,1.53683036 5.78018973,0.99609375 C5.78208705,0.455357143 6.21847098,0.0189732143 6.75920759,0.0170758929 L18.7426897,0.0170758929 C19.2834263,0.0189732143 19.7198103,0.455357143 19.7217076,0.99609375 C19.7198103,1.53683036 19.281529,1.97321429 18.7426897,1.97511161 Z" id="Path"></path>
                                <circle id="Oval" cx="1.17728795" cy="0.99609375" r="1"></circle>
                                <path d="M9.95998884,113.294754 C7.40239955,113.294754 5.33052455,111.222879 5.33052455,108.66529 C5.33052455,106.107701 7.40239955,104.035826 9.95998884,104.035826 C12.5175781,104.035826 14.5894531,106.107701 14.5894531,108.66529 C14.5856585,111.220982 12.5137835,113.29096 9.95998884,113.294754 Z M9.95998884,104.982589 C7.92795759,104.982589 6.27918527,106.631362 6.27918527,108.663393 C6.27918527,110.695424 7.92795759,112.344196 9.95998884,112.344196 C11.9920201,112.344196 13.6407924,110.695424 13.6407924,108.663393 C13.6369978,106.631362 11.9901228,104.984487 9.95998884,104.982589 Z" id="Shape" fill-rule="nonzero"></path>
                            </g>
                            <rect id="Rectangle" fill="#FF5F5F" x="18.7346939" y="65.2244898" width="5.15565072" height="16.7702387"></rect>
                            <rect id="Rectangle" fill="#FFFFFF" x="9.71428571" y="72.1632653" width="5.15565072" height="9.91540361"></rect>
                            <rect id="Rectangle" fill="#FFFFFF" x="27.0612245" y="55.5102041" width="5.15565072" height="26.0777211"></rect>
                            <rect id="Rectangle" fill="#FF5F5F" x="35.3877551" y="39.5510204" width="5.15565072" height="42.8479598"></rect>
                            <rect id="Rectangle" fill="#FFFFFF" x="44.4081633" y="47.877551" width="5.15565072" height="34.1903241"></rect>
                            <rect id="Rectangle" fill="#FF5F5F" x="52.7346939" y="61.755102" width="5.15565072" height="20.480654"></rect>
                        </g>
                    </g>
                </g>
            </g>
        </g>
    </g>
</svg>