<?xml version="1.0" encoding="UTF-8"?>
<svg width="268px" height="204px" viewBox="0 0 268 204" version="1.1" xmlns="http://www.w3.org/2000/svg" xmlns:xlink="http://www.w3.org/1999/xlink">
    <!-- Generator: Sketch 52.6 (67491) - http://www.bohemiancoding.com/sketch -->
    <title>TIE-Ipad</title>
    <desc>Created with Sketch.</desc>
    <g id="Maquettes" stroke="none" stroke-width="1" fill="none" fill-rule="evenodd">
        <g id="Maquette-DPS-V2.3" transform="translate(-149.000000, -5883.000000)">
            <rect fill="#FEFDFC" x="0" y="0" width="1440" height="6786"></rect>
            <g id="Les-projets-en-cours" transform="translate(107.000000, 4470.000000)">
                <g id="TIE" transform="translate(42.000000, 161.000000)"></g>
            </g>
            <g id="Competences" transform="translate(121.000000, 5251.000000)">
                <g id="Referencement" transform="translate(1.000000, 677.000000)">
                    <g id="google" transform="translate(68.000000, 0.000000)">
                        <path d="M4.67121406,121.982143 C3.02573596,121.919208 1.7062556,120.60901 1.64285714,118.975912 L1.64285714,85.5626627 C1.70337385,83.9263464 3.02321443,82.6165067 4.67121406,82.5535714 L180.155978,82.5535714 C181.801456,82.6193674 183.118055,83.9295647 183.178571,85.5626627 L183.178571,119.270564 C182.858697,120.843945 181.469695,121.976421 179.853394,121.982143 L4.67121406,121.982143 Z" id="Path" fill="#FFFFFF"></path>
                        <path d="M179.540886,83.7855441 C180.391952,83.8548954 181.064755,84.5368503 181.125135,85.3921835 L181.125135,119.198434 C180.932495,120.091332 180.150434,120.735722 179.241863,120.75017 L4.45911399,120.75017 C3.6080475,120.680819 2.93524494,119.998864 2.87486522,119.143531 L2.87486522,85.3921835 C2.94099539,84.5426296 3.61379795,83.866454 4.45911399,83.7999923 L179.546636,83.7999923 L179.540886,83.7855441 Z M179.546636,80.9107143 L4.45911399,80.9107143 C2.02128291,80.9713967 0.0603797172,82.9421307 0,85.3921835 L0,119.143531 C0.0603797172,121.593584 2.02128291,123.564318 4.45911399,123.625 L179.241863,123.625 C181.642316,123.613441 183.669349,121.830534 184,119.441164 L184,85.3921835 C183.93962,82.9421307 181.978717,80.9713967 179.540886,80.9107143 L179.546636,80.9107143 Z" id="Shape" fill="#AAC1CE" fill-rule="nonzero"></path>
                        <g id="Group" transform="translate(15.607143, 93.232143)" fill="#E04F5F">
                            <path d="M0.863954023,14.3549362 C1.94891954,15.0214468 3.18565107,15.3796596 4.45144417,15.3914043 C6.4979532,15.3914043 7.69163054,14.2844681 7.69163054,12.6846223 C7.69163054,11.2165372 6.86499015,10.3562394 4.77291544,9.53447872 C2.24168801,8.61839362 0.677385878,7.27656383 0.677385878,5.04250532 C0.797937603,2.5236383 2.89324138,0.582829787 5.3555821,0.709085106 C5.46752299,0.714957447 5.57946388,0.723765957 5.69140476,0.738446809 C6.87970033,0.697340426 8.05615599,0.964531915 9.115289,1.51653191 L8.5641954,3.1842766 C7.65718719,2.68219149 6.64110837,2.42087234 5.61103695,2.42087234 C3.49564122,2.42087234 2.68945156,3.71278723 2.68945156,4.79586702 C2.68945156,6.26395213 3.6337734,7.00680319 5.7689023,7.85498936 C8.39197865,8.89145745 9.72378818,10.1833723 9.72378818,12.5113883 C9.72378818,14.9568511 7.95569622,17.0738298 4.2964491,17.0738298 C2.91584483,17.0914468 1.5556913,16.7420426 0.344433498,16.0608511 L0.863954023,14.3549362 Z" id="Path"></path>
                            <path d="M13.6758038,11.5215319 C13.5064573,13.5269362 14.9588186,15.2941436 16.9188604,15.4703138 C17.1111691,15.4879309 17.3006076,15.4879309 17.4929163,15.47325 C18.549179,15.508484 19.5997011,15.3058883 20.572367,14.886016 L20.9168005,16.3541011 C19.7457266,16.85325 18.4831626,17.094016 17.2144992,17.0587819 C14.3675411,17.2408245 11.9134524,15.0298883 11.7354951,12.1146383 C11.7182734,11.850383 11.7211437,11.5831915 11.7441059,11.3218723 C11.4111535,8.28917553 13.5466412,5.55560106 16.5112808,5.21500532 C16.6605353,5.1973883 16.8126601,5.18564362 16.9619146,5.18270745 C19.564899,5.23262234 21.6343703,7.43475 21.5827053,10.0945532 C21.579835,10.2442979 21.5712241,10.3940426 21.5540025,10.5437872 C21.5511322,10.866766 21.52817,11.1868085 21.487986,11.5068511 L13.6758038,11.5215319 Z M19.6054417,10.0538138 C19.8379343,8.45066489 18.7529688,6.95652128 17.1861552,6.72162766 C17.0569926,6.70107447 16.92783,6.69226596 16.7986675,6.68932979 C15.0707594,6.82145745 13.7278276,8.28073404 13.6991248,10.0538138 L19.6054417,10.0538138 Z" id="Shape" fill-rule="nonzero"></path>
                            <path d="M30.233009,16.8444415 L30.0722734,15.4115904 L30.006257,15.4115904 C29.2025788,16.5038457 27.9367857,17.1321862 26.6024647,17.1028245 C24.8630755,17.2437606 23.3450567,15.9136755 23.2072833,14.1347234 C23.1986724,14.0348936 23.1958021,13.9350638 23.1986724,13.835234 C23.1986724,11.0844096 25.5892562,9.57815426 29.8889343,9.60457979 L29.8889343,9.36968617 C30.0554105,8.08364362 29.1713645,6.90367021 27.9141823,6.73337234 C27.7304844,6.70988298 27.5439163,6.70694681 27.3602184,6.7275 C26.3355287,6.73043617 25.3338013,7.02405319 24.4615952,7.57311702 L24.0023506,6.20779787 C25.1045378,5.52954255 26.3728424,5.1801383 27.6587274,5.19775532 C31.0625197,5.19775532 31.8891601,7.57311702 31.8891601,9.85415426 L31.8891601,14.111234 C31.8719384,15.024383 31.9350846,15.9375319 32.072858,16.8385691 L30.233009,16.8444415 Z M29.9459811,11.0341277 C27.7358662,10.9871489 25.2304713,11.3864681 25.2304713,13.5970372 C25.1501034,14.6041436 25.8848949,15.490867 26.8694007,15.5701436 C26.9583793,15.5789521 27.047358,15.5789521 27.1392069,15.5730798 C28.3447241,15.6083138 29.4354302,14.8361011 29.83117,13.6704415 C29.9029269,13.4561011 29.9402406,13.2358883 29.9459811,13.0098032 L29.9459811,11.0341277 Z" id="Shape" fill-rule="nonzero"></path>
                            <path d="M35.1724007,9.01440957 C35.1724007,7.67257979 35.1494384,6.51903191 35.0805517,5.46201064 L36.851514,5.46201064 L36.9175304,7.69643617 L37.0093793,7.69643617 C37.3997373,6.26945745 38.6425681,5.26271809 40.08883,5.20399468 C40.2811388,5.20105851 40.4763177,5.22454787 40.6628859,5.2715266 L40.6628859,7.22407979 C40.4361338,7.17416489 40.2065115,7.1536117 39.9740189,7.15654787 C38.5446199,7.21527128 37.3825156,8.35450532 37.2619639,9.81341489 C37.2074286,10.1305213 37.1758555,10.4535 37.1729852,10.7764787 L37.1729852,16.8422394 L35.1637898,16.8422394 L35.1724007,9.01440957 Z" id="Path"></path>
                            <path d="M50.3838038,16.421633 C49.3792061,16.8796755 48.2885,17.1057606 47.1895419,17.0822713 C44.273697,17.2349521 41.7880353,14.9418032 41.6387808,11.9590213 C41.6272997,11.73 41.63017,11.5009787 41.6473916,11.2719574 C41.5010074,8.08070745 43.9120419,5.37355851 47.0288062,5.22381383 C47.2268555,5.21500532 47.4249048,5.21500532 47.6258243,5.22675 C48.5902381,5.21500532 49.5460411,5.41760106 50.4297282,5.81398404 L49.9704836,7.41419681 C49.2500435,7.02662234 48.4406248,6.83870745 47.6286946,6.87100532 C45.3156084,7.02662234 43.5647381,9.07019681 43.7168629,11.4334468 C43.851766,13.5562979 45.4878251,15.2589096 47.5598079,15.4321436 C48.4180213,15.4350798 49.267624,15.2442287 50.0422406,14.8683989 L50.3838038,16.421633 Z" id="Path"></path>
                            <path d="M52.7600361,0.147909574 L54.7835829,0.147909574 L54.7835829,7.24977128 L54.8295074,7.24977128 C55.16533,6.63317553 55.6618883,6.12521809 56.264647,5.78168617 C56.8932381,5.40292021 57.6050673,5.20032447 58.3341182,5.19445213 C59.8295337,5.19445213 62.2201174,6.1340266 62.2201174,10.0622553 L62.2201174,16.835633 L60.1965706,16.835633 L60.1965706,10.3088936 C60.1965706,8.47378723 59.5306658,6.92385638 57.6136782,6.92385638 C56.3737176,6.94734574 55.2833703,7.77240957 54.9016232,8.97917553 C54.7925525,9.29628191 54.7437578,9.63394149 54.7638498,9.96866489 L54.7638498,16.836 L52.740303,16.836 L52.7600361,0.147909574 Z" id="Path"></path>
                        </g>
                        <g id="Group" transform="translate(149.500000, 92.410714)" fill="#25B6D2">
                            <path d="M8.37326047,2.9833436 C11.279064,2.9833436 13.6328818,5.33680727 13.6328818,8.2429649 C13.6328818,11.1491225 11.2794181,13.5025862 8.37326047,13.5025862 C5.46710283,13.5025862 3.11363916,11.1491225 3.11363916,8.2429649 C3.11930419,5.33999384 5.47028941,2.98617611 8.37326047,2.9833436 Z M8.37326047,0.151185345 C3.9039101,0.151185345 0.281480911,3.77361453 0.281480911,8.2429649 C0.281480911,12.7123153 3.9039101,16.3347445 8.37326047,16.3347445 C12.8426108,16.3347445 16.46504,12.7123153 16.46504,8.2429649 C16.46504,3.77361453 12.8426108,0.151185345 8.37326047,0.151185345 Z" id="Shape" fill-rule="nonzero"></path>
                            <polygon id="Rectangle" transform="translate(16.755175, 16.733308) rotate(-44.983794) translate(-16.755175, -16.733308) " points="15.5016016 12.9544907 18.1712406 12.8928118 18.0087484 20.5121248 15.3391094 20.5738037"></polygon>
                        </g>
                        <path d="M34.5,43.2656661 C30.3561394,44.7446041 25.9949244,45.5172266 21.5931366,45.5547046 C15.8234654,45.8804746 10.1639204,43.8941427 5.87805493,40.0371561 C1.90807777,35.8396246 -0.204606498,30.2330659 0.0156459083,24.4733522 C0.0765051258,12.0058043 8.68301279,2.88208328 22.7693858,2.88208328 C26.3597174,2.7984786 29.9268645,3.45578436 33.248039,4.81075675 L31.9410148,9.21549813 C29.0114405,7.94989626 25.838067,7.3358343 22.6447693,7.41943898 C13.9918927,6.7448357 6.42542563,13.1762698 5.74764232,21.7868311 C5.68388505,22.6026975 5.68388505,23.4243297 5.74764232,24.2398357 C5.74764232,34.8424946 12.1751727,41.109242 21.9611899,41.109242 C24.427075,41.2447392 26.8962204,40.8641938 29.2056103,39.9964349 L29.2056103,27.5144724 L20.6541658,27.5144724 L20.6541658,23.1645065 L34.5,23.1645065 L34.5,43.2656661 Z" id="Path" fill="#415E72"></path>
                        <path d="M69.8214286,29.7370326 C69.8214286,40.7820435 62.0670008,45.5892857 54.7509615,45.5892857 C46.5606877,45.5892857 40.25,39.6725972 40.25,30.2272531 C40.25,20.2400864 46.8715912,14.375 55.247826,14.375 C63.9494926,14.375 69.8214286,20.6099018 69.8214286,29.7370326 Z M45.8139381,30.0437788 C45.8139381,36.5854267 49.6286807,41.5098488 55.0008466,41.5098488 C60.2596925,41.5098488 64.196472,36.6366705 64.196472,29.9119066 C64.196472,24.8552539 61.6311547,18.4458365 55.1228835,18.4458365 C48.6146122,18.4458365 45.8139381,24.3736338 45.8139381,30.0437788 Z" id="Shape" fill="#25B6D2" fill-rule="nonzero"></path>
                        <path d="M104.321429,29.7370326 C104.321429,40.7820435 96.5670008,45.5892857 89.2509615,45.5892857 C81.0606877,45.5892857 74.75,39.6725972 74.75,30.2272531 C74.75,20.2400864 81.3715912,14.375 89.747826,14.375 C98.4465869,14.375 104.321429,20.6099018 104.321429,29.7370326 Z M80.3139381,30.0437788 C80.3139381,36.5854267 84.1286807,41.5098488 89.5008466,41.5098488 C94.7596925,41.5098488 98.696472,36.6366705 98.696472,29.9119066 C98.696472,24.8552539 96.1311547,18.4458365 89.6228835,18.4458365 C83.1146122,18.4458365 80.3110325,24.3736338 80.3139381,30.0437788 Z" id="Shape" fill="#415E72" fill-rule="nonzero"></path>
                        <path d="M136.357143,15.0816193 C136.233657,17.2491845 136.110172,19.6747761 136.110172,23.3061656 L136.110172,40.6596064 C136.110172,47.5179406 134.746086,51.7206486 131.845969,54.3070132 C128.793648,56.8158623 124.913902,58.0934338 120.968465,57.8895966 C117.488252,57.975725 114.051116,57.1259246 111.015667,55.4238117 L112.379752,51.2842646 C115.03577,52.8518018 118.068347,53.6610501 121.152257,53.6265987 C126.708752,53.6265987 130.789162,50.7215589 130.789162,43.1914231 L130.789162,39.8586122 L130.665676,39.8586122 C128.623856,43.1110366 124.99144,45.0173456 121.155129,44.8508306 C113.738094,44.8508306 108.428571,38.5351055 108.428571,30.267495 C108.428571,20.1423817 115.033257,14.3922331 121.896043,14.3922331 C125.749584,14.1654283 129.387743,16.1923171 131.222797,19.5882888 L131.346283,19.5882888 L131.593254,15.0697767 L136.357143,15.0816193 Z M130.728855,26.8801361 C130.760444,26.0475614 130.657061,25.2149866 130.421577,24.4143512 C129.476768,21.0040247 126.361269,18.6498479 122.820749,18.6728155 C117.63184,18.6728155 113.919015,23.0592641 113.919015,29.9778882 C113.919015,35.8514875 116.888055,40.728868 122.754699,40.728868 C126.209066,40.7087714 129.256001,38.4665616 130.295219,35.1739439 C130.588139,34.2322732 130.734598,33.2532802 130.725983,32.2689041 L130.728855,26.8801361 Z" id="Shape" fill="#E04F5F" fill-rule="nonzero"></path>
                        <polygon id="Path" fill="#415E72" points="145.392857 0.410714286 151.142857 0.410714286 151.142857 44.7678571 145.392857 44.7678571"></polygon>
                        <path d="M162.886765,30.9872782 C162.425876,36.2596554 166.313019,40.9088389 171.568515,41.3683366 C172.080933,41.4142863 172.59335,41.4171582 173.105767,41.379824 C175.936586,41.4688517 178.756312,40.9433012 181.366705,39.8376348 L182.288484,43.7315189 C179.148497,45.0410874 175.767688,45.6700249 172.367199,45.5809972 C163.19307,45.5809972 157.714286,39.5303457 157.714286,30.5019337 C157.714286,21.4735217 163.00986,14.375 171.69161,14.375 C181.423958,14.375 184,22.9640174 184,28.4690153 C183.991412,29.3133424 183.928433,30.1576694 183.816789,30.9958937 L162.886765,30.9872782 Z M178.778855,27.093394 C178.838971,23.6475202 177.364698,18.2573967 171.26221,18.2573967 C165.783425,18.2573967 163.379144,23.3316155 162.961195,27.093394 L178.778855,27.093394 Z" id="Shape" fill="#25B6D2" fill-rule="nonzero"></path>
                    </g>
                </g>
            </g>
        </g>
    </g>
</svg>